M48
; DRILL file {KiCad 9.0.0} date 2025-07-28T21:00:41+0300
; FORMAT={-:-/ absolute / inch / decimal}
; #@! TF.CreationDate,2025-07-28T21:00:41+03:00
; #@! TF.GenerationSoftware,Kicad,Pcbnew,9.0.0
; #@! TF.FileFunction,NonPlated,1,2,NPTH
FMAT,2
INCH
; #@! TA.AperFunction,NonPlated,NPTH,ComponentDrill
T1C0.0256
; #@! TA.AperFunction,NonPlated,NPTH,ComponentDrill
T2C0.0670
; #@! TA.AperFunction,NonPlated,NPTH,ComponentDrill
T3C0.1181
; #@! TA.AperFunction,NonPlated,NPTH,ComponentDrill
T4C0.1260
; #@! TA.AperFunction,NonPlated,NPTH,ComponentDrill
T5C0.1350
%
G90
G05
T1
X7.8862Y-3.1026
X8.1138Y-3.1026
T2
X3.7929Y-4.9419
X3.9091Y-4.2828
X4.0254Y-3.6237
X4.2194Y-5.0171
X4.3356Y-4.358
X4.4519Y-3.6989
X4.6454Y-4.5581
X4.8186Y-3.9116
X4.9919Y-3.2651
X5.0637Y-4.6702
X5.2369Y-4.0237
X5.3522Y-5.9447
X5.4102Y-3.3772
X5.467Y-4.4782
X5.6959Y-3.8493
X5.7591Y-6.0928
X5.8739Y-4.6263
X5.9248Y-3.2203
X5.9713Y-5.1645
X6.0902Y-6.2432
X6.1028Y-3.9974
X6.2002Y-4.5356
X6.3317Y-3.3684
X6.3783Y-5.3126
X6.4291Y-3.9067
X6.4726Y-6.4465
X6.5834Y-5.5549
X6.6072Y-4.6837
X6.7795Y-6.6415
X6.8123Y-4.9259
X6.8361Y-4.0548
X6.9903Y-5.703
X7.0412Y-4.297
X7.1298Y-6.8961
X7.2192Y-5.0741
X7.4481Y-4.4451
X8.5519Y-4.4451
X8.7808Y-5.0741
X8.8702Y-6.8961
X8.9588Y-4.297
X9.0097Y-5.703
X9.1639Y-4.0548
X9.1877Y-4.9259
X9.2205Y-6.6415
X9.3928Y-4.6837
X9.4166Y-5.5549
X9.5274Y-6.4465
X9.5709Y-3.9067
X9.6217Y-5.3126
X9.6683Y-3.3684
X9.7998Y-4.5356
X9.8972Y-3.9974
X9.9098Y-6.2432
X10.0287Y-5.1645
X10.0752Y-3.2203
X10.1261Y-4.6263
X10.2409Y-6.0928
X10.3041Y-3.8493
X10.533Y-4.4782
X10.5898Y-3.3772
X10.6478Y-5.9447
X10.7631Y-4.0237
X10.9363Y-4.6702
X11.0081Y-3.2651
X11.1814Y-3.9116
X11.3546Y-4.5581
X11.5481Y-3.6989
X11.6644Y-4.358
X11.7806Y-5.0171
X11.9746Y-3.6237
X12.0909Y-4.2828
X12.2071Y-4.9419
T3
X4.0468Y-4.7488
X4.1631Y-4.0897
X4.2257Y-4.8683
X4.2793Y-3.4306
X4.3419Y-4.2092
X4.4581Y-3.5501
X4.9152Y-4.3879
X5.0829Y-4.5225
X5.0884Y-3.7414
X5.2561Y-3.876
X5.2616Y-3.0949
X5.4294Y-3.2295
X5.6358Y-5.7986
X5.7506Y-4.3321
X5.7911Y-5.9473
X5.9059Y-4.4808
X5.9795Y-3.7032
X6.1348Y-3.8519
X6.2084Y-3.0743
X6.2549Y-5.0184
X6.3637Y-3.223
X6.3914Y-6.138
X6.4102Y-5.1672
X6.4838Y-4.3895
X6.5245Y-6.3069
X6.6392Y-4.5382
X6.7127Y-3.7606
X6.867Y-5.4088
X6.8681Y-3.9093
X7.0223Y-5.5575
X7.0924Y-6.5793
X7.0959Y-4.7799
X7.2007Y-6.7651
X7.2512Y-4.9286
X7.3248Y-4.1509
X7.4801Y-4.2997
X8.6752Y-4.1509
X8.8898Y-4.165
X8.9041Y-4.7799
X8.9076Y-6.5793
X9.1178Y-6.5337
X9.1187Y-4.7939
X9.133Y-5.4088
X9.2873Y-3.7606
X9.3476Y-5.4229
X9.5019Y-3.7747
X9.5162Y-4.3895
X9.6086Y-6.138
X9.7308Y-4.4036
X9.7451Y-5.0184
X9.7916Y-3.0743
X9.8231Y-6.1221
X9.9597Y-5.0325
X10.0062Y-3.0883
X10.0205Y-3.7032
X10.2351Y-3.7173
X10.2494Y-4.3321
X10.3642Y-5.7986
X10.464Y-4.3462
X10.5788Y-5.8127
X10.7384Y-3.0949
X10.9116Y-3.7414
X10.9509Y-3.1276
X11.0848Y-4.3879
X11.1241Y-3.7741
X11.2974Y-4.4206
X11.7207Y-3.4306
X11.8369Y-4.0897
X11.9296Y-3.4817
X11.9532Y-4.7488
X12.0458Y-4.1408
X12.1621Y-4.7999
T4
X3.85Y-3.1
X3.85Y-7.0
X6.3Y-7.0
X6.8Y-3.1
X8.0Y-5.05
X9.2Y-3.1
X9.7Y-7.0
X12.15Y-3.1
X12.15Y-7.0
T5
X4.0062Y-4.9795
X4.1224Y-4.3204
X4.2386Y-3.6613
X4.8546Y-4.6141
X5.0278Y-3.9676
X5.201Y-3.3212
X5.5556Y-6.0187
X5.6704Y-4.5522
X5.8993Y-3.9233
X6.1283Y-3.2944
X6.1748Y-5.2386
X6.2814Y-6.3449
X6.4037Y-4.6096
X6.6326Y-3.9807
X6.7868Y-5.6289
X6.9547Y-6.7688
X7.0157Y-5.0
X7.2447Y-4.3711
X8.7553Y-4.3711
X8.9843Y-5.0
X9.0453Y-6.7688
X9.2132Y-5.6289
X9.3674Y-3.9807
X9.5963Y-4.6096
X9.7186Y-6.3449
X9.8252Y-5.2386
X9.8717Y-3.2944
X10.1007Y-3.9233
X10.3296Y-4.5522
X10.4444Y-6.0187
X10.799Y-3.3212
X10.9722Y-3.9676
X11.1454Y-4.6141
X11.7614Y-3.6613
X11.8776Y-4.3204
X11.9938Y-4.9795
M30
