%TF.GenerationSoftware,KiCad,Pcbnew,9.0.0*%
%TF.CreationDate,2025-07-28T21:00:41+03:00*%
%TF.ProjectId,cyberia,63796265-7269-4612-9e6b-696361645f70,v1.0.0*%
%TF.SameCoordinates,Original*%
%TF.FileFunction,Soldermask,Bot*%
%TF.FilePolarity,Negative*%
%FSLAX46Y46*%
G04 Gerber Fmt 4.6, Leading zero omitted, Abs format (unit mm)*
G04 Created by KiCad (PCBNEW 9.0.0) date 2025-07-28 21:00:41*
%MOMM*%
%LPD*%
G01*
G04 APERTURE LIST*
G04 Aperture macros list*
%AMRoundRect*
0 Rectangle with rounded corners*
0 $1 Rounding radius*
0 $2 $3 $4 $5 $6 $7 $8 $9 X,Y pos of 4 corners*
0 Add a 4 corners polygon primitive as box body*
4,1,4,$2,$3,$4,$5,$6,$7,$8,$9,$2,$3,0*
0 Add four circle primitives for the rounded corners*
1,1,$1+$1,$2,$3*
1,1,$1+$1,$4,$5*
1,1,$1+$1,$6,$7*
1,1,$1+$1,$8,$9*
0 Add four rect primitives between the rounded corners*
20,1,$1+$1,$2,$3,$4,$5,0*
20,1,$1+$1,$4,$5,$6,$7,0*
20,1,$1+$1,$6,$7,$8,$9,0*
20,1,$1+$1,$8,$9,$2,$3,0*%
G04 Aperture macros list end*
%ADD10C,1.801800*%
%ADD11C,3.100000*%
%ADD12C,3.529000*%
%ADD13RoundRect,0.050000X-0.776974X-1.666227X1.666227X-0.776974X0.776974X1.666227X-1.666227X0.776974X0*%
%ADD14RoundRect,0.050000X-1.815843X-0.287601X0.287601X-1.815843X1.815843X0.287601X-0.287601X1.815843X0*%
%ADD15C,6.100000*%
%ADD16RoundRect,0.050000X-1.505993X-1.054507X1.054507X-1.505993X1.505993X1.054507X-1.054507X1.505993X0*%
%ADD17RoundRect,0.050000X-1.666227X-0.776974X0.776974X-1.666227X1.666227X0.776974X-0.776974X1.666227X0*%
%ADD18RoundRect,0.050000X-0.919239X-1.592168X1.592168X-0.919239X0.919239X1.592168X-1.592168X0.919239X0*%
%ADD19RoundRect,0.050000X-1.054507X-1.505993X1.505993X-1.054507X1.054507X1.505993X-1.505993X1.054507X0*%
%ADD20RoundRect,0.050000X-0.537519X-1.758145X1.758145X-0.537519X0.537519X1.758145X-1.758145X0.537519X0*%
%ADD21RoundRect,0.050000X-1.758145X-0.537519X0.537519X-1.758145X1.758145X0.537519X-0.537519X1.758145X0*%
%ADD22RoundRect,0.050000X-1.592168X-0.919239X0.919239X-1.592168X1.592168X0.919239X-0.919239X1.592168X0*%
%ADD23C,0.750000*%
%ADD24O,1.100000X2.200000*%
%ADD25O,1.100000X1.900000*%
%ADD26RoundRect,0.050000X-0.287601X-1.815843X1.815843X-0.287601X0.287601X1.815843X-1.815843X0.287601X0*%
%ADD27RoundRect,0.050000X0.500000X-0.850000X0.500000X0.850000X-0.500000X0.850000X-0.500000X-0.850000X0*%
G04 APERTURE END LIST*
D10*
%TO.C,SW28*%
X251388303Y-101533304D03*
D11*
X254521592Y-94061022D03*
D12*
X256556612Y-99652193D03*
D11*
X259972500Y-94418245D03*
D10*
X261724921Y-97771082D03*
D13*
X251444099Y-95181138D03*
X263049993Y-93298129D03*
%TD*%
D10*
%TO.C,SW19*%
X172198947Y-168695359D03*
D11*
X180145862Y-167114527D03*
D12*
X176648540Y-171928178D03*
D11*
X182897820Y-171833291D03*
D10*
X181098133Y-175160997D03*
D14*
X177496332Y-165189530D03*
X185547350Y-173758287D03*
%TD*%
D15*
%TO.C,H4*%
X308610000Y-78740000D03*
%TD*%
%TO.C,H3*%
X233680000Y-78740000D03*
%TD*%
D10*
%TO.C,SW36*%
X260118444Y-154757215D03*
D11*
X263251733Y-147284933D03*
D12*
X265286753Y-152876104D03*
D11*
X268702641Y-147642156D03*
D10*
X270455062Y-150994993D03*
D13*
X260174240Y-148405049D03*
X271780134Y-146522040D03*
%TD*%
D10*
%TO.C,SW4*%
X102244123Y-92041093D03*
D11*
X108693773Y-87136552D03*
D12*
X107660566Y-92996158D03*
D11*
X113235785Y-90171370D03*
D10*
X113077009Y-93951223D03*
D16*
X105468527Y-86567854D03*
X116461031Y-90740068D03*
%TD*%
D10*
%TO.C,SW27*%
X257202645Y-117508079D03*
D11*
X260335934Y-110035797D03*
D12*
X262370954Y-115626968D03*
D11*
X265786842Y-110393020D03*
D10*
X267539263Y-113745857D03*
D13*
X257258441Y-111155913D03*
X268864335Y-109272904D03*
%TD*%
D10*
%TO.C,SW12*%
X157485304Y-115203756D03*
D11*
X164688633Y-111493696D03*
D12*
X162653613Y-117084867D03*
D11*
X168634652Y-115271120D03*
D10*
X167821922Y-118965978D03*
D17*
X161611140Y-110373580D03*
X171712145Y-116391236D03*
%TD*%
D15*
%TO.C,H6*%
X160020000Y-177800000D03*
%TD*%
D10*
%TO.C,SW30*%
X244392419Y-134940753D03*
D11*
X247525708Y-127468471D03*
D12*
X249560728Y-133059642D03*
D11*
X252976616Y-127825694D03*
D10*
X254729037Y-131178531D03*
D13*
X244448215Y-128588587D03*
X256054109Y-126705578D03*
%TD*%
D15*
%TO.C,H2*%
X172720000Y-78740000D03*
%TD*%
D10*
%TO.C,SW34*%
X223031691Y-128881111D03*
D11*
X226164980Y-121408829D03*
D12*
X228200000Y-127000000D03*
D11*
X231615888Y-121766052D03*
D10*
X233368309Y-125118889D03*
D13*
X223087487Y-122528945D03*
X234693381Y-120645936D03*
%TD*%
D10*
%TO.C,SW24*%
X277781602Y-118622293D03*
D11*
X281554221Y-111451529D03*
D12*
X283094194Y-117198788D03*
D11*
X286953252Y-112282471D03*
D10*
X288406786Y-115775283D03*
D18*
X278390814Y-112299162D03*
X290116659Y-111434839D03*
%TD*%
D15*
%TO.C,H9*%
X203200000Y-128270000D03*
%TD*%
D10*
%TO.C,SW15*%
X173031691Y-125118889D03*
D11*
X180235020Y-121408829D03*
D12*
X178200000Y-127000000D03*
D11*
X184181039Y-125186253D03*
D10*
X183368309Y-128881111D03*
D17*
X177157527Y-120288713D03*
X187258532Y-126306369D03*
%TD*%
D10*
%TO.C,SW23*%
X293322990Y-93951223D03*
D11*
X297706226Y-87136552D03*
D12*
X298739433Y-92996158D03*
D11*
X303012291Y-88434888D03*
D10*
X304155876Y-92041093D03*
D19*
X294480981Y-87705250D03*
X306237536Y-87866190D03*
%TD*%
D10*
%TO.C,SW37*%
X241996769Y-163741800D03*
D11*
X244059625Y-155906168D03*
D12*
X246852981Y-161159706D03*
D11*
X249507201Y-155501295D03*
D10*
X251709193Y-158577612D03*
D20*
X241167972Y-157443687D03*
X252398854Y-153963775D03*
%TD*%
D10*
%TO.C,SW8*%
X138860736Y-113745857D03*
D11*
X146064065Y-110035797D03*
D12*
X144029045Y-115626968D03*
D11*
X150010084Y-113813221D03*
D10*
X149197354Y-117508079D03*
D17*
X142986572Y-108915681D03*
X153087577Y-114933337D03*
%TD*%
D10*
%TO.C,SW11*%
X151670962Y-131178531D03*
D11*
X158874291Y-127468471D03*
D12*
X156839271Y-133059642D03*
D11*
X162820310Y-131245895D03*
D10*
X162007580Y-134940753D03*
D17*
X155796798Y-126348355D03*
X165897803Y-132366011D03*
%TD*%
D10*
%TO.C,SW18*%
X154690806Y-158577612D03*
D11*
X162340374Y-155906168D03*
D12*
X159547018Y-161159706D03*
D11*
X165722274Y-160196010D03*
D10*
X164403230Y-163741800D03*
D21*
X159448720Y-154368648D03*
X168613928Y-161733530D03*
%TD*%
D15*
%TO.C,H7*%
X246380000Y-177800000D03*
%TD*%
D10*
%TO.C,SW3*%
X99292104Y-108782825D03*
D11*
X105741754Y-103878284D03*
D12*
X104708547Y-109737890D03*
D11*
X110283766Y-106913102D03*
D10*
X110124990Y-110692955D03*
D16*
X102516508Y-103309586D03*
X113509012Y-107481800D03*
%TD*%
D10*
%TO.C,SW26*%
X268981754Y-85780815D03*
D11*
X272754373Y-78610051D03*
D12*
X274294346Y-84357310D03*
D11*
X278153404Y-79440993D03*
D10*
X279606938Y-82933805D03*
D18*
X269590966Y-79457684D03*
X281316811Y-78593361D03*
%TD*%
D10*
%TO.C,SW13*%
X163299646Y-99228982D03*
D11*
X170502975Y-95518922D03*
D12*
X168467955Y-101110093D03*
D11*
X174448994Y-99296346D03*
D10*
X173636264Y-102991204D03*
D17*
X167425482Y-94398806D03*
X177526487Y-100416462D03*
%TD*%
D10*
%TO.C,SW6*%
X122393137Y-99354544D03*
D11*
X129245702Y-95030790D03*
D12*
X127705729Y-100778049D03*
D11*
X133505930Y-98449922D03*
D10*
X133018321Y-102201554D03*
D22*
X126082295Y-94183158D03*
X136669337Y-99297555D03*
%TD*%
D23*
%TO.C,J1*%
X206090000Y-78805000D03*
X200310000Y-78805000D03*
D24*
X207520000Y-79305000D03*
D25*
X207520000Y-75125000D03*
D24*
X198880000Y-79305000D03*
D25*
X198880000Y-75125000D03*
%TD*%
D10*
%TO.C,SW2*%
X96340085Y-125524557D03*
D11*
X102789735Y-120620016D03*
D12*
X101756528Y-126479622D03*
D11*
X107331747Y-123654834D03*
D10*
X107172971Y-127434687D03*
D16*
X99564489Y-120051318D03*
X110556993Y-124223532D03*
%TD*%
D10*
%TO.C,SW9*%
X144675079Y-97771082D03*
D11*
X151878408Y-94061022D03*
D12*
X149843388Y-99652193D03*
D11*
X155824427Y-97838446D03*
D10*
X155011697Y-101533304D03*
D17*
X148800915Y-92940906D03*
X158901920Y-98958562D03*
%TD*%
D10*
%TO.C,SW17*%
X135944937Y-150994993D03*
D11*
X143148266Y-147284933D03*
D12*
X141113246Y-152876104D03*
D11*
X147094285Y-151062357D03*
D10*
X146281555Y-154757215D03*
D17*
X140070773Y-146164817D03*
X150171778Y-152182473D03*
%TD*%
D15*
%TO.C,H5*%
X97790000Y-177800000D03*
%TD*%
D10*
%TO.C,SW33*%
X228846033Y-144855886D03*
D11*
X231979322Y-137383604D03*
D12*
X234014342Y-142974775D03*
D11*
X237430230Y-137740827D03*
D10*
X239182651Y-141093664D03*
D13*
X228901829Y-138503720D03*
X240507723Y-136620711D03*
%TD*%
D10*
%TO.C,SW29*%
X245573960Y-85558530D03*
D11*
X248707249Y-78086248D03*
D12*
X250742269Y-83677419D03*
D11*
X254158157Y-78443471D03*
D10*
X255910578Y-81796308D03*
D13*
X245629756Y-79206364D03*
X257235650Y-77323355D03*
%TD*%
D10*
%TO.C,SW10*%
X150489421Y-81796308D03*
D11*
X157692750Y-78086248D03*
D12*
X155657730Y-83677419D03*
D11*
X161638769Y-81863672D03*
D10*
X160826039Y-85558530D03*
D17*
X154615257Y-76966132D03*
X164716262Y-82983788D03*
%TD*%
D10*
%TO.C,SW25*%
X273381678Y-102201554D03*
D11*
X277154297Y-95030790D03*
D12*
X278694270Y-100778049D03*
D11*
X282553328Y-95861732D03*
D10*
X284006862Y-99354544D03*
D18*
X273990890Y-95878423D03*
X285716735Y-95014100D03*
%TD*%
D10*
%TO.C,SW35*%
X217217348Y-112906337D03*
D11*
X220350637Y-105434055D03*
D12*
X222385657Y-111025226D03*
D11*
X225801545Y-105791278D03*
D10*
X227553966Y-109144115D03*
D13*
X217273144Y-106554171D03*
X228879038Y-104671162D03*
%TD*%
D15*
%TO.C,H1*%
X97790000Y-78740000D03*
%TD*%
D10*
%TO.C,SW31*%
X238578077Y-118965978D03*
D11*
X241711366Y-111493696D03*
D12*
X243746386Y-117084867D03*
D11*
X247162274Y-111850919D03*
D10*
X248914695Y-115203756D03*
D13*
X238633873Y-112613812D03*
X250239767Y-110730803D03*
%TD*%
D10*
%TO.C,SW7*%
X126793061Y-82933805D03*
D11*
X133645626Y-78610051D03*
D12*
X132105653Y-84357310D03*
D11*
X137905854Y-82029183D03*
D10*
X137418245Y-85780815D03*
D22*
X130482219Y-77762419D03*
X141069261Y-82876816D03*
%TD*%
D10*
%TO.C,SW32*%
X232763735Y-102991204D03*
D11*
X235897024Y-95518922D03*
D12*
X237932044Y-101110093D03*
D11*
X241347932Y-95876145D03*
D10*
X243100353Y-99228982D03*
D13*
X232819531Y-96639038D03*
X244425425Y-94756029D03*
%TD*%
D10*
%TO.C,SW22*%
X296275009Y-110692955D03*
D11*
X300658245Y-103878284D03*
D12*
X301691452Y-109737890D03*
D11*
X305964310Y-105176620D03*
D10*
X307107895Y-108782825D03*
D19*
X297433000Y-104446982D03*
X309189555Y-104607922D03*
%TD*%
D10*
%TO.C,SW14*%
X167217348Y-141093664D03*
D11*
X174420677Y-137383604D03*
D12*
X172385657Y-142974775D03*
D11*
X178366696Y-141161028D03*
D10*
X177553966Y-144855886D03*
D17*
X171343184Y-136263488D03*
X181444189Y-142281144D03*
%TD*%
D15*
%TO.C,H8*%
X308610000Y-177800000D03*
%TD*%
D10*
%TO.C,SW21*%
X299227028Y-127434687D03*
D11*
X303610264Y-120620016D03*
D12*
X304643471Y-126479622D03*
D11*
X308916329Y-121918352D03*
D10*
X310059914Y-125524557D03*
D19*
X300385019Y-121188714D03*
X312141574Y-121349654D03*
%TD*%
D10*
%TO.C,SW5*%
X117993213Y-115775283D03*
D11*
X124845778Y-111451529D03*
D12*
X123305805Y-117198788D03*
D11*
X129106006Y-114870661D03*
D10*
X128618397Y-118622293D03*
D22*
X121682371Y-110603897D03*
X132269413Y-115718294D03*
%TD*%
D10*
%TO.C,SW16*%
X178846033Y-109144115D03*
D11*
X186049362Y-105434055D03*
D12*
X184014342Y-111025226D03*
D11*
X189995381Y-109211479D03*
D10*
X189182651Y-112906337D03*
D17*
X182971869Y-104313939D03*
X193072874Y-110331595D03*
%TD*%
D10*
%TO.C,SW38*%
X225301866Y-175160997D03*
D11*
X226254137Y-167114527D03*
D12*
X229751459Y-171928178D03*
D11*
X231592349Y-165955438D03*
D10*
X234201052Y-168695359D03*
D26*
X223604606Y-169039524D03*
X234241880Y-164030441D03*
%TD*%
D27*
%TO.C,SW40*%
X191130000Y-81890000D03*
X191130000Y-75590000D03*
X187330000Y-81890000D03*
X187330000Y-75590000D03*
%TD*%
%TO.C,SW39*%
X219070000Y-81890000D03*
X219070000Y-75590000D03*
X215270000Y-81890000D03*
X215270000Y-75590000D03*
%TD*%
M02*
