M48
; DRILL file {KiCad 9.0.0} date 2025-07-28T21:00:41+0300
; FORMAT={-:-/ absolute / inch / decimal}
; #@! TF.CreationDate,2025-07-28T21:00:41+03:00
; #@! TF.GenerationSoftware,Kicad,Pcbnew,9.0.0
; #@! TF.FileFunction,Plated,1,2,PTH
FMAT,2
INCH
; #@! TA.AperFunction,Plated,PTH,ViaDrill
T1C0.0157
; #@! TA.AperFunction,Plated,PTH,ComponentDrill
T2C0.0236
%
G90
G05
T1
X4.17Y-3.3
X4.35Y-5.01
X4.47Y-4.34
X4.5851Y-3.6751
X5.17Y-2.97
X5.2Y-4.66
X5.38Y-4.02
X5.5539Y-3.3761
X5.92Y-5.89
X6.0271Y-4.62
X6.14Y-2.95
X6.256Y-4.004
X6.4849Y-3.3651
X6.5314Y-5.3186
X6.65Y-6.26
X6.66Y-3.64
X6.76Y-4.69
X6.9892Y-4.0692
X7.1435Y-5.7235
X7.24Y-4.02
X7.31Y-6.73
X7.3724Y-5.0776
X7.38Y-3.29
X7.6013Y-4.4587
X7.76Y-3.98
X7.76Y-4.02
X7.76Y-4.06
X7.76Y-4.1
X7.815Y-3.91
X7.82Y-3.78
X7.8448Y-3.445
X7.89Y-3.21
X7.94Y-5.66
X8.0Y-3.24
X8.0Y-3.3
X8.0Y-3.52
X8.0Y-5.4
X8.0Y-5.66
X8.0Y-5.92
X8.0Y-6.18
X8.0079Y-3.69
X8.08Y-3.35
X8.09Y-4.16
X8.0945Y-3.21
X8.12Y-3.52
X8.17Y-3.52
X8.19Y-4.07
X8.21Y-3.35
X8.21Y-3.68
X8.21Y-3.98
X8.27Y-3.52
X8.3148Y-3.36
X8.38Y-3.48
X8.39Y-3.5695
X8.5Y-4.09
X8.79Y-3.73
X9.011Y-4.211
X9.06Y-3.84
X9.2221Y-6.3321
X9.2399Y-4.8499
X9.4688Y-5.4788
X9.56Y-3.16
X9.623Y-3.82
X9.852Y-4.462
X9.937Y-5.96
X10.0809Y-5.0909
X10.1274Y-3.1474
X10.3563Y-3.7663
X10.58Y-3.04
X10.5852Y-4.4152
X10.7Y-5.64
X11.0755Y-3.1955
X11.2487Y-3.8587
X11.4219Y-4.4919
X11.55Y-3.36
X12.0566Y-3.5766
X12.1728Y-4.2228
X12.289Y-4.889
T2
G00X7.8299Y-2.9734
M15
G01X7.8299Y-2.9419
M16
G05
G00X7.8299Y-3.1439
M15
G01X7.8299Y-3.1006
M16
G05
G00X8.1701Y-2.9734
M15
G01X8.1701Y-2.9419
M16
G05
G00X8.1701Y-3.1439
M15
G01X8.1701Y-3.1006
M16
G05
M30
