%TF.GenerationSoftware,KiCad,Pcbnew,9.0.0*%
%TF.CreationDate,2025-05-01T21:08:40+03:00*%
%TF.ProjectId,cyberia,63796265-7269-4612-9e6b-696361645f70,v1.0.0*%
%TF.SameCoordinates,Original*%
%TF.FileFunction,Soldermask,Top*%
%TF.FilePolarity,Negative*%
%FSLAX46Y46*%
G04 Gerber Fmt 4.6, Leading zero omitted, Abs format (unit mm)*
G04 Created by KiCad (PCBNEW 9.0.0) date 2025-05-01 21:08:40*
%MOMM*%
%LPD*%
G01*
G04 APERTURE LIST*
G04 Aperture macros list*
%AMRoundRect*
0 Rectangle with rounded corners*
0 $1 Rounding radius*
0 $2 $3 $4 $5 $6 $7 $8 $9 X,Y pos of 4 corners*
0 Add a 4 corners polygon primitive as box body*
4,1,4,$2,$3,$4,$5,$6,$7,$8,$9,$2,$3,0*
0 Add four circle primitives for the rounded corners*
1,1,$1+$1,$2,$3*
1,1,$1+$1,$4,$5*
1,1,$1+$1,$6,$7*
1,1,$1+$1,$8,$9*
0 Add four rect primitives between the rounded corners*
20,1,$1+$1,$2,$3,$4,$5,0*
20,1,$1+$1,$4,$5,$6,$7,0*
20,1,$1+$1,$6,$7,$8,$9,0*
20,1,$1+$1,$8,$9,$2,$3,0*%
G04 Aperture macros list end*
%ADD10RoundRect,0.268750X-0.481250X0.268750X-0.481250X-0.268750X0.481250X-0.268750X0.481250X0.268750X0*%
%ADD11C,1.801800*%
%ADD12C,3.100000*%
%ADD13C,3.529000*%
%ADD14C,3.300000*%
%ADD15RoundRect,0.250000X-0.250000X-0.275000X0.250000X-0.275000X0.250000X0.275000X-0.250000X0.275000X0*%
%ADD16RoundRect,0.225000X-0.300000X0.225000X-0.300000X-0.225000X0.300000X-0.225000X0.300000X0.225000X0*%
%ADD17RoundRect,0.250000X-0.275000X0.250000X-0.275000X-0.250000X0.275000X-0.250000X0.275000X0.250000X0*%
%ADD18RoundRect,0.250000X0.275000X-0.250000X0.275000X0.250000X-0.275000X0.250000X-0.275000X-0.250000X0*%
%ADD19RoundRect,0.150000X0.150000X-0.287500X0.150000X0.287500X-0.150000X0.287500X-0.150000X-0.287500X0*%
%ADD20RoundRect,0.050000X2.000000X-1.700000X2.000000X1.700000X-2.000000X1.700000X-2.000000X-1.700000X0*%
%ADD21RoundRect,0.243750X-0.281250X0.243750X-0.281250X-0.243750X0.281250X-0.243750X0.281250X0.243750X0*%
%ADD22RoundRect,0.250000X0.250000X0.275000X-0.250000X0.275000X-0.250000X-0.275000X0.250000X-0.275000X0*%
%ADD23RoundRect,0.175000X-0.175000X0.537500X-0.175000X-0.537500X0.175000X-0.537500X0.175000X0.537500X0*%
%ADD24RoundRect,0.175000X0.175000X-0.612500X0.175000X0.612500X-0.175000X0.612500X-0.175000X-0.612500X0*%
%ADD25C,0.750000*%
%ADD26RoundRect,0.175000X0.175000X0.450000X-0.175000X0.450000X-0.175000X-0.450000X0.175000X-0.450000X0*%
%ADD27RoundRect,0.100000X0.100000X0.525000X-0.100000X0.525000X-0.100000X-0.525000X0.100000X-0.525000X0*%
%ADD28O,1.100000X1.900000*%
%ADD29O,1.100000X2.200000*%
%ADD30RoundRect,0.075000X-0.412500X-0.075000X0.412500X-0.075000X0.412500X0.075000X-0.412500X0.075000X0*%
%ADD31RoundRect,0.075000X-0.075000X-0.412500X0.075000X-0.412500X0.075000X0.412500X-0.075000X0.412500X0*%
%ADD32RoundRect,0.050000X-1.600000X-1.600000X1.600000X-1.600000X1.600000X1.600000X-1.600000X1.600000X0*%
%ADD33RoundRect,0.050000X-0.500000X0.850000X-0.500000X-0.850000X0.500000X-0.850000X0.500000X0.850000X0*%
%ADD34RoundRect,0.050000X0.500000X-0.850000X0.500000X0.850000X-0.500000X0.850000X-0.500000X-0.850000X0*%
%ADD35RoundRect,0.050000X-0.600000X0.700000X-0.600000X-0.700000X0.600000X-0.700000X0.600000X0.700000X0*%
G04 APERTURE END LIST*
D10*
%TO.C,D4*%
X202184000Y-115999499D03*
X202184000Y-114124501D03*
%TD*%
%TO.C,D13*%
X196087997Y-115999501D03*
X196088003Y-114124499D03*
%TD*%
%TO.C,D10*%
X198119997Y-115999501D03*
X198120003Y-114124499D03*
%TD*%
%TO.C,D7*%
X200151997Y-115999501D03*
X200152003Y-114124499D03*
%TD*%
D11*
%TO.C,SW31*%
X234987172Y-106834764D03*
D12*
X237457288Y-99117833D03*
D13*
X239971868Y-104510365D03*
D12*
X242918590Y-98998618D03*
D11*
X244956564Y-102185966D03*
%TD*%
D14*
%TO.C,H4*%
X93980000Y-172719998D03*
%TD*%
D15*
%TO.C,C1*%
X206488999Y-84327997D03*
X208038999Y-84327997D03*
%TD*%
D11*
%TO.C,SW29*%
X239890018Y-74757328D03*
D12*
X242360134Y-67040397D03*
D13*
X244874714Y-72432929D03*
D12*
X247821436Y-66921182D03*
D11*
X249859410Y-70108530D03*
%TD*%
D14*
%TO.C,H6*%
X226060000Y-68580000D03*
%TD*%
%TO.C,H1*%
X93980000Y-68579996D03*
%TD*%
D16*
%TO.C,FB1*%
X207009998Y-69024999D03*
X207009998Y-70674997D03*
%TD*%
D11*
%TO.C,SW22*%
X295539735Y-94311251D03*
D12*
X299312353Y-87140486D03*
D13*
X300852327Y-92887746D03*
D12*
X304711384Y-87971428D03*
D11*
X306164919Y-91464241D03*
%TD*%
D16*
%TO.C,R1*%
X205739999Y-79184997D03*
X205739999Y-80834995D03*
%TD*%
D11*
%TO.C,SW19*%
X173111852Y-163750913D03*
D13*
X177000939Y-167640000D03*
D12*
X181208227Y-163432715D03*
X183188123Y-168523884D03*
D11*
X180890026Y-171529087D03*
%TD*%
D17*
%TO.C,C7*%
X203962000Y-94728998D03*
X203962000Y-96278998D03*
%TD*%
D15*
%TO.C,C5*%
X208267000Y-86867998D03*
X209817000Y-86867998D03*
%TD*%
D11*
%TO.C,SW26*%
X265282323Y-74250488D03*
D12*
X268415611Y-66778205D03*
D13*
X270450632Y-72369377D03*
D12*
X273866521Y-67135428D03*
D11*
X275618941Y-70488266D03*
%TD*%
%TO.C,SW20*%
X304339585Y-127152728D03*
D12*
X308112203Y-119981963D03*
D13*
X309652177Y-125729223D03*
D12*
X313511234Y-120812905D03*
D11*
X314964769Y-124305718D03*
%TD*%
D18*
%TO.C,C10*%
X202692000Y-81546999D03*
X202692000Y-79996999D03*
%TD*%
D17*
%TO.C,C11*%
X205486000Y-94728998D03*
X205486000Y-96278998D03*
%TD*%
D11*
%TO.C,SW36*%
X256240226Y-147679688D03*
D12*
X258710342Y-139962757D03*
D13*
X261224922Y-145355289D03*
D12*
X264171644Y-139843542D03*
D11*
X266209618Y-143030890D03*
%TD*%
D19*
%TO.C,U4*%
X196485005Y-83434497D03*
X197755003Y-83434494D03*
X199025001Y-83434494D03*
X200295001Y-83434498D03*
X200294999Y-78109497D03*
X199025001Y-78109500D03*
X197755003Y-78109500D03*
X196485003Y-78109496D03*
D20*
X198390002Y-80771997D03*
%TD*%
D21*
%TO.C,F1*%
X204469999Y-69062500D03*
X204469999Y-70637500D03*
%TD*%
D15*
%TO.C,C4*%
X208775000Y-90424000D03*
X210325000Y-90424000D03*
%TD*%
D22*
%TO.C,C6*%
X198133000Y-89915998D03*
X196583000Y-89915998D03*
%TD*%
D11*
%TO.C,SW14*%
X166346284Y-134263403D03*
D12*
X173845555Y-131195270D03*
D13*
X171330977Y-136587803D03*
D12*
X177447335Y-135302241D03*
D11*
X176315670Y-138912203D03*
%TD*%
D23*
%TO.C,U3*%
X201610000Y-73157496D03*
X200660000Y-73157499D03*
X199710000Y-73157495D03*
X199710000Y-75432502D03*
X200660000Y-75432499D03*
X201610000Y-75432503D03*
%TD*%
D11*
%TO.C,SW18*%
X157557502Y-151950772D03*
D12*
X165475617Y-150231487D03*
D13*
X162062837Y-155105443D03*
D12*
X168309509Y-154901506D03*
D11*
X166568172Y-158260114D03*
%TD*%
D17*
%TO.C,C13*%
X200152001Y-98538998D03*
X200152001Y-100088998D03*
%TD*%
D11*
%TO.C,SW8*%
X142171571Y-100922991D03*
D12*
X149670842Y-97854858D03*
D13*
X147156264Y-103247391D03*
D12*
X153272622Y-101961829D03*
D11*
X152140957Y-105571791D03*
%TD*%
%TO.C,SW12*%
X161443439Y-102185966D03*
D12*
X168942710Y-99117833D03*
D13*
X166428132Y-104510366D03*
D12*
X172544490Y-103224804D03*
D11*
X171412825Y-106834766D03*
%TD*%
%TO.C,SW28*%
X247074531Y-90164558D03*
D12*
X249544647Y-82447627D03*
D13*
X252059227Y-87840159D03*
D12*
X255005949Y-82328412D03*
D11*
X257043923Y-85515760D03*
%TD*%
D24*
%TO.C,U2*%
X204789998Y-74851500D03*
X206689997Y-74851501D03*
X205740001Y-72976497D03*
%TD*%
D11*
%TO.C,SW23*%
X291139815Y-77890512D03*
D12*
X294912433Y-70719747D03*
D13*
X296452407Y-76467007D03*
D12*
X300311464Y-71550689D03*
D11*
X301764999Y-75043502D03*
%TD*%
D14*
%TO.C,H3*%
X312419997Y-172719999D03*
%TD*%
D11*
%TO.C,SW30*%
X242171682Y-122241999D03*
D12*
X244641798Y-114525068D03*
D13*
X247156378Y-119917600D03*
D12*
X250103100Y-114405853D03*
D11*
X252141074Y-117593201D03*
%TD*%
D16*
%TO.C,R4*%
X201929998Y-69025000D03*
X201929998Y-70674998D03*
%TD*%
%TO.C,R2*%
X207264003Y-79184999D03*
X207264003Y-80834997D03*
%TD*%
D14*
%TO.C,H5*%
X180340000Y-68580000D03*
%TD*%
D11*
%TO.C,SW6*%
X124966713Y-86463041D03*
D12*
X132170041Y-82752980D03*
D13*
X130135022Y-88344152D03*
D12*
X136116063Y-86530406D03*
D11*
X135303331Y-90225263D03*
%TD*%
D16*
%TO.C,R3*%
X199389998Y-69024999D03*
X199389998Y-70674997D03*
%TD*%
D14*
%TO.C,H2*%
X312420000Y-68580000D03*
%TD*%
D25*
%TO.C,J1*%
X206089998Y-64834997D03*
X200309998Y-64834997D03*
D26*
X206399998Y-65909997D03*
X205599998Y-65909996D03*
D27*
X204449999Y-65909997D03*
X203449997Y-65909997D03*
X202949999Y-65909996D03*
X201949996Y-65909997D03*
D26*
X200799998Y-65909996D03*
X199999998Y-65909997D03*
X199999998Y-65909997D03*
X200799998Y-65909996D03*
D27*
X201449998Y-65909995D03*
X202449999Y-65909997D03*
X203949997Y-65909997D03*
X204949999Y-65909996D03*
D26*
X205599998Y-65909996D03*
X206399998Y-65909997D03*
D28*
X207520000Y-61154996D03*
D29*
X207519997Y-65334997D03*
X198879999Y-65334997D03*
D28*
X198879997Y-61154997D03*
%TD*%
D11*
%TO.C,SW2*%
X95835155Y-107884978D03*
D12*
X102687719Y-103561223D03*
D13*
X101147747Y-109308483D03*
D12*
X106947950Y-106980357D03*
D11*
X106460339Y-110731988D03*
%TD*%
%TO.C,SW11*%
X154258928Y-117593202D03*
D12*
X161758199Y-114525069D03*
D13*
X159243621Y-119917602D03*
D12*
X165359979Y-118632040D03*
D11*
X164228314Y-122242002D03*
%TD*%
%TO.C,SW21*%
X299939661Y-110731988D03*
D12*
X303712279Y-103561223D03*
D13*
X305252253Y-109308483D03*
D12*
X309111310Y-104392165D03*
D11*
X310564845Y-107884978D03*
%TD*%
%TO.C,SW16*%
X180715307Y-103448940D03*
D12*
X188214578Y-100380807D03*
D13*
X185700000Y-105773340D03*
D12*
X191816358Y-104487778D03*
D11*
X190684693Y-108097740D03*
%TD*%
D30*
%TO.C,U1*%
X199762501Y-86808000D03*
X199762500Y-87208001D03*
X199762500Y-87608000D03*
X199762500Y-88008000D03*
X199762498Y-88408000D03*
X199762500Y-88808000D03*
X199762500Y-89208000D03*
X199762500Y-89608000D03*
X199762500Y-90008000D03*
X199762501Y-90407999D03*
X199762500Y-90808000D03*
X199762500Y-91208000D03*
X199762499Y-91607999D03*
X199762501Y-92008000D03*
D31*
X200600000Y-92845499D03*
X201000001Y-92845500D03*
X201400000Y-92845500D03*
X201800000Y-92845500D03*
X202200000Y-92845502D03*
X202600000Y-92845500D03*
X203000000Y-92845500D03*
X203400000Y-92845500D03*
X203800000Y-92845500D03*
X204199999Y-92845499D03*
X204600000Y-92845500D03*
X205000000Y-92845500D03*
X205399999Y-92845501D03*
X205800000Y-92845499D03*
D30*
X206637499Y-92008000D03*
X206637500Y-91607999D03*
X206637500Y-91208000D03*
X206637500Y-90808000D03*
X206637502Y-90408000D03*
X206637500Y-90008000D03*
X206637500Y-89608000D03*
X206637500Y-89208000D03*
X206637500Y-88808000D03*
X206637499Y-88408001D03*
X206637500Y-88008000D03*
X206637500Y-87608000D03*
X206637501Y-87208001D03*
X206637499Y-86808000D03*
D31*
X205800000Y-85970501D03*
X205399999Y-85970500D03*
X205000000Y-85970500D03*
X204600000Y-85970500D03*
X204200000Y-85970498D03*
X203800000Y-85970500D03*
X203400000Y-85970500D03*
X203000000Y-85970500D03*
X202600000Y-85970500D03*
X202200001Y-85970501D03*
X201800000Y-85970500D03*
X201400000Y-85970500D03*
X201000001Y-85970499D03*
X200600000Y-85970501D03*
D32*
X203200000Y-89408000D03*
%TD*%
D11*
%TO.C,SW13*%
X168627947Y-86778736D03*
D12*
X176127218Y-83710603D03*
D13*
X173612640Y-89103136D03*
D12*
X179728998Y-87817574D03*
D11*
X178597333Y-91427536D03*
%TD*%
%TO.C,SW1*%
X91435229Y-124305719D03*
D12*
X98287793Y-119981964D03*
D13*
X96747821Y-125729224D03*
D12*
X102548024Y-123401098D03*
D11*
X102060413Y-127152729D03*
%TD*%
%TO.C,SW17*%
X140190383Y-143030887D03*
D12*
X147689654Y-139962754D03*
D13*
X145175076Y-145355287D03*
D12*
X151291434Y-144069725D03*
D11*
X150159769Y-147679687D03*
%TD*%
%TO.C,SW4*%
X104635000Y-75043501D03*
D12*
X111487564Y-70719746D03*
D13*
X109947592Y-76467006D03*
D12*
X115747795Y-74138880D03*
D11*
X115260184Y-77890511D03*
%TD*%
D14*
%TO.C,H8*%
X254000000Y-172720000D03*
%TD*%
D11*
%TO.C,SW32*%
X227802661Y-91427534D03*
D12*
X230272777Y-83710603D03*
D13*
X232787357Y-89103135D03*
D12*
X235734079Y-83591388D03*
D11*
X237772053Y-86778736D03*
%TD*%
D14*
%TO.C,H7*%
X152400000Y-172720000D03*
%TD*%
D11*
%TO.C,SW38*%
X225509971Y-171529088D03*
D13*
X229399058Y-167640001D03*
D12*
X225191773Y-163432713D03*
X230282942Y-161452817D03*
D11*
X233288145Y-163750914D03*
%TD*%
%TO.C,SW3*%
X100235077Y-91464240D03*
D12*
X107087641Y-87140485D03*
D13*
X105547669Y-92887745D03*
D12*
X111347872Y-90559619D03*
D11*
X110860261Y-94311250D03*
%TD*%
%TO.C,SW10*%
X156540589Y-70108528D03*
D12*
X164039860Y-67040395D03*
D13*
X161525282Y-72432928D03*
D12*
X167641640Y-71147366D03*
D11*
X166509975Y-74757328D03*
%TD*%
%TO.C,SW5*%
X119152370Y-102437815D03*
D12*
X126355698Y-98727754D03*
D13*
X124320679Y-104318926D03*
D12*
X130301720Y-102505180D03*
D11*
X129488988Y-106200037D03*
%TD*%
D18*
%TO.C,C2*%
X204216001Y-81546997D03*
X204216001Y-79996997D03*
%TD*%
D33*
%TO.C,SW39*%
X217800002Y-62890000D03*
X217800003Y-69190000D03*
X213999997Y-62890000D03*
X213999998Y-69190000D03*
%TD*%
D11*
%TO.C,SW25*%
X271096667Y-90225261D03*
D12*
X274229955Y-82752978D03*
D13*
X276264976Y-88344150D03*
D12*
X279680865Y-83110201D03*
D11*
X281433285Y-86463039D03*
%TD*%
%TO.C,SW34*%
X222899812Y-123504972D03*
D12*
X225369928Y-115788041D03*
D13*
X227884508Y-121180573D03*
D12*
X230831230Y-115668826D03*
D11*
X232869204Y-118856174D03*
%TD*%
%TO.C,SW9*%
X159325467Y-90164562D03*
D12*
X160457132Y-86554600D03*
D13*
X154340774Y-87840162D03*
D12*
X156855352Y-82447629D03*
D11*
X149356081Y-85515762D03*
%TD*%
%TO.C,SW37*%
X248842497Y-151950774D03*
D12*
X246282010Y-149165741D03*
X240924382Y-150231487D03*
D13*
X244337161Y-155105444D03*
D11*
X239831825Y-158260114D03*
%TD*%
%TO.C,SW27*%
X254259040Y-105571792D03*
D12*
X256729156Y-97854861D03*
D13*
X259243736Y-103247393D03*
D12*
X262190458Y-97735646D03*
D11*
X264228432Y-100922994D03*
%TD*%
D15*
%TO.C,C9*%
X206489001Y-82804000D03*
X208039001Y-82804000D03*
%TD*%
D11*
%TO.C,SW24*%
X276911008Y-106200037D03*
D12*
X280044296Y-98727754D03*
D13*
X282079317Y-104318926D03*
D12*
X285495206Y-99084977D03*
D11*
X287247626Y-102437815D03*
%TD*%
%TO.C,SW33*%
X230084324Y-138912204D03*
D12*
X232554440Y-131195273D03*
D13*
X235069020Y-136587805D03*
D12*
X238015742Y-131076058D03*
D11*
X240053716Y-134263406D03*
%TD*%
D17*
%TO.C,C14*%
X194818000Y-78218997D03*
X194818000Y-79768997D03*
%TD*%
D22*
%TO.C,C3*%
X198133000Y-86105996D03*
X196583000Y-86105996D03*
%TD*%
D34*
%TO.C,SW40*%
X188599999Y-69190000D03*
X188599997Y-62890000D03*
X192400003Y-69190000D03*
X192400001Y-62890000D03*
%TD*%
D35*
%TO.C,Y1*%
X201842000Y-98213998D03*
X201842000Y-100413998D03*
X203542000Y-100413998D03*
X203542000Y-98213998D03*
%TD*%
D18*
%TO.C,C12*%
X205486000Y-100088998D03*
X205486000Y-98538998D03*
%TD*%
D11*
%TO.C,SW7*%
X130781055Y-70488267D03*
D12*
X137984383Y-66778206D03*
D13*
X135949364Y-72369378D03*
D12*
X141930405Y-70555632D03*
D11*
X141117673Y-74250489D03*
%TD*%
%TO.C,SW35*%
X215715302Y-108097738D03*
D12*
X218185418Y-100380807D03*
D13*
X220699998Y-105773339D03*
D12*
X223646720Y-100261592D03*
D11*
X225684694Y-103448940D03*
%TD*%
D10*
%TO.C,D12*%
X196087997Y-120825501D03*
X196088003Y-118950499D03*
%TD*%
%TO.C,D20*%
X210312000Y-128602501D03*
X210312000Y-130477499D03*
%TD*%
%TO.C,D32*%
X210312007Y-114124501D03*
X210311993Y-115999499D03*
%TD*%
%TO.C,D11*%
X196088003Y-123776499D03*
X196087997Y-125651501D03*
%TD*%
%TO.C,D21*%
X204216000Y-123776501D03*
X204216000Y-125651499D03*
%TD*%
%TO.C,D22*%
X204216000Y-118950501D03*
X204216000Y-120825499D03*
%TD*%
%TO.C,D31*%
X210312007Y-118950501D03*
X210311993Y-120825499D03*
%TD*%
%TO.C,D24*%
X206248007Y-123776501D03*
X206247993Y-125651499D03*
%TD*%
%TO.C,D30*%
X210312007Y-123776501D03*
X210311993Y-125651499D03*
%TD*%
%TO.C,D2*%
X202184000Y-123776501D03*
X202184000Y-125651499D03*
%TD*%
%TO.C,D23*%
X204216000Y-114124501D03*
X204216000Y-115999499D03*
%TD*%
%TO.C,D27*%
X208280007Y-123776501D03*
X208279993Y-125651499D03*
%TD*%
%TO.C,D3*%
X202184000Y-120825499D03*
X202184000Y-118950501D03*
%TD*%
%TO.C,D6*%
X200151997Y-120825501D03*
X200152003Y-118950499D03*
%TD*%
%TO.C,D29*%
X208280007Y-114124501D03*
X208279993Y-115999499D03*
%TD*%
%TO.C,D14*%
X194056003Y-123776499D03*
X194055997Y-125651501D03*
%TD*%
%TO.C,D33*%
X212344007Y-123776501D03*
X212343993Y-125651499D03*
%TD*%
%TO.C,D34*%
X212344007Y-118950501D03*
X212343993Y-120825499D03*
%TD*%
%TO.C,D38*%
X204216001Y-128602506D03*
X204215999Y-130477494D03*
%TD*%
%TO.C,D8*%
X198120003Y-123776499D03*
X198119997Y-125651501D03*
%TD*%
%TO.C,D1*%
X196088000Y-128602501D03*
X196088000Y-130477499D03*
%TD*%
%TO.C,D15*%
X194055997Y-120825501D03*
X194056003Y-118950499D03*
%TD*%
%TO.C,D16*%
X194056003Y-114124499D03*
X194055997Y-115999501D03*
%TD*%
%TO.C,D25*%
X206248007Y-118950501D03*
X206247993Y-120825499D03*
%TD*%
%TO.C,D18*%
X200151997Y-130477501D03*
X200152003Y-128602499D03*
%TD*%
%TO.C,D26*%
X206248007Y-114124501D03*
X206247993Y-115999499D03*
%TD*%
%TO.C,D5*%
X200152003Y-123776499D03*
X200151997Y-125651501D03*
%TD*%
%TO.C,D17*%
X198120003Y-128602499D03*
X198119997Y-130477501D03*
%TD*%
%TO.C,D28*%
X208279998Y-118950499D03*
X208280002Y-120825501D03*
%TD*%
%TO.C,D36*%
X208280007Y-128602501D03*
X208279993Y-130477499D03*
%TD*%
%TO.C,D9*%
X198119997Y-120825501D03*
X198120003Y-118950499D03*
%TD*%
%TO.C,D19*%
X202184006Y-128602500D03*
X202183994Y-130477500D03*
%TD*%
%TO.C,D35*%
X212344007Y-114124501D03*
X212343993Y-115999499D03*
%TD*%
%TO.C,D37*%
X206248001Y-128602506D03*
X206247999Y-130477494D03*
%TD*%
D11*
%TO.C,SW15*%
X173530793Y-118856172D03*
D12*
X181030064Y-115788039D03*
D13*
X178515486Y-121180572D03*
D12*
X184631844Y-119895010D03*
D11*
X183500179Y-123504972D03*
%TD*%
M02*
