%TF.GenerationSoftware,KiCad,Pcbnew,9.0.0*%
%TF.CreationDate,2025-05-01T21:08:40+03:00*%
%TF.ProjectId,cyberia,63796265-7269-4612-9e6b-696361645f70,v1.0.0*%
%TF.SameCoordinates,Original*%
%TF.FileFunction,Legend,Top*%
%TF.FilePolarity,Positive*%
%FSLAX46Y46*%
G04 Gerber Fmt 4.6, Leading zero omitted, Abs format (unit mm)*
G04 Created by KiCad (PCBNEW 9.0.0) date 2025-05-01 21:08:40*
%MOMM*%
%LPD*%
G01*
G04 APERTURE LIST*
%ADD10C,0.120000*%
G04 APERTURE END LIST*
D10*
%TO.C,D4*%
X203144001Y-116062005D02*
X203143999Y-113377007D01*
X201223993Y-113377001D02*
X201223999Y-116062001D01*
X203143999Y-113377007D02*
X201223993Y-113377001D01*
%TO.C,D13*%
X197048001Y-116062005D02*
X197047999Y-113377007D01*
X195127993Y-113377001D02*
X195127999Y-116062005D01*
X197047999Y-113377007D02*
X195127993Y-113377001D01*
%TO.C,D10*%
X199080001Y-116062005D02*
X199079999Y-113377007D01*
X197159993Y-113377001D02*
X197159999Y-116062005D01*
X199079999Y-113377007D02*
X197159993Y-113377001D01*
%TO.C,D7*%
X201112001Y-116062005D02*
X201111999Y-113377007D01*
X199191993Y-113377001D02*
X199191999Y-116062005D01*
X201111999Y-113377007D02*
X199191993Y-113377001D01*
%TO.C,C1*%
X207123420Y-83817996D02*
X207404578Y-83817996D01*
X207123420Y-84837998D02*
X207404578Y-84837998D01*
%TO.C,FB1*%
X206487498Y-69612740D02*
X206487498Y-70087256D01*
X207532498Y-69612740D02*
X207532498Y-70087256D01*
%TO.C,R1*%
X205217499Y-79772738D02*
X205217499Y-80247254D01*
X206262499Y-79772738D02*
X206262499Y-80247254D01*
%TO.C,C7*%
X203451999Y-95363419D02*
X203451999Y-95644577D01*
X204472001Y-95363419D02*
X204472001Y-95644577D01*
%TO.C,C5*%
X208901421Y-86357997D02*
X209182579Y-86357997D01*
X208901421Y-87377999D02*
X209182579Y-87377999D01*
%TO.C,C10*%
X202181999Y-80912578D02*
X202181999Y-80631420D01*
X203202001Y-80912578D02*
X203202001Y-80631420D01*
%TO.C,C11*%
X204975999Y-95363419D02*
X204975999Y-95644577D01*
X205996001Y-95363419D02*
X205996001Y-95644577D01*
%TO.C,U4*%
X195780002Y-83731997D02*
X195780002Y-77771997D01*
X201000002Y-83771997D02*
X201000002Y-77771997D01*
X196080002Y-84451997D02*
X195600000Y-83971998D01*
X196080002Y-83971997D01*
X196080002Y-84451997D01*
G36*
X196080002Y-84451997D02*
G01*
X195600000Y-83971998D01*
X196080002Y-83971997D01*
X196080002Y-84451997D01*
G37*
%TO.C,F1*%
X203959998Y-69687221D02*
X203959997Y-70012779D01*
X204980001Y-69687221D02*
X204980000Y-70012779D01*
%TO.C,C4*%
X209409421Y-89913999D02*
X209690579Y-89913999D01*
X209409421Y-90934001D02*
X209690579Y-90934001D01*
%TO.C,C6*%
X197498579Y-89405997D02*
X197217421Y-89405997D01*
X197498579Y-90425999D02*
X197217421Y-90425999D01*
%TO.C,U3*%
X199100000Y-74294999D02*
X199100000Y-73494999D01*
X199100000Y-74294999D02*
X199100000Y-75094999D01*
X202220000Y-74294999D02*
X202220000Y-73494999D01*
X202220000Y-74294999D02*
X202220000Y-75094999D01*
X202500000Y-73234999D02*
X202170000Y-72994999D01*
X202499998Y-72755000D01*
X202500000Y-73234999D01*
G36*
X202500000Y-73234999D02*
G01*
X202170000Y-72994999D01*
X202499998Y-72755000D01*
X202500000Y-73234999D01*
G37*
%TO.C,C13*%
X199642000Y-99173419D02*
X199642000Y-99454577D01*
X200662002Y-99173419D02*
X200662002Y-99454577D01*
%TO.C,U2*%
X204180000Y-73914000D02*
X204180000Y-73263998D01*
X204180000Y-73914000D02*
X204180000Y-74564004D01*
X207300000Y-73914000D02*
X207300000Y-73263996D01*
X207300000Y-73914000D02*
X207300000Y-74564002D01*
X204230001Y-75076501D02*
X203900000Y-75316499D01*
X203900000Y-74836499D01*
X204230001Y-75076501D01*
G36*
X204230001Y-75076501D02*
G01*
X203900000Y-75316499D01*
X203900000Y-74836499D01*
X204230001Y-75076501D01*
G37*
%TO.C,R4*%
X201407498Y-69612741D02*
X201407498Y-70087257D01*
X202452498Y-69612741D02*
X202452498Y-70087257D01*
%TO.C,R2*%
X206741503Y-79772740D02*
X206741503Y-80247256D01*
X207786503Y-79772740D02*
X207786503Y-80247256D01*
%TO.C,R3*%
X198867498Y-69612740D02*
X198867498Y-70087256D01*
X199912498Y-69612740D02*
X199912498Y-70087256D01*
%TO.C,J1*%
X198529998Y-62329997D02*
X198529998Y-64029997D01*
X207869998Y-62329997D02*
X207869998Y-64029997D01*
%TO.C,U1*%
X199590000Y-93018001D02*
X199590001Y-92368000D01*
X199590003Y-86447999D02*
X199590000Y-86038000D01*
X200239999Y-93017997D02*
X199590000Y-93018001D01*
X200240000Y-85798001D02*
X199890001Y-85797999D01*
X206160000Y-93017999D02*
X206810001Y-93018000D01*
X206160001Y-85798003D02*
X206810000Y-85797999D01*
X206810000Y-85797999D02*
X206809999Y-86448000D01*
X206810001Y-93018000D02*
X206809997Y-92368001D01*
X199589999Y-85798000D02*
X199350000Y-85468001D01*
X199829999Y-85468000D01*
X199589999Y-85798000D01*
G36*
X199589999Y-85798000D02*
G01*
X199350000Y-85468001D01*
X199829999Y-85468000D01*
X199589999Y-85798000D01*
G37*
%TO.C,C2*%
X203706000Y-80912576D02*
X203706000Y-80631418D01*
X204726002Y-80912576D02*
X204726002Y-80631418D01*
%TO.C,SW39*%
X213150000Y-64790003D02*
X213150000Y-67289997D01*
X213600000Y-64340000D02*
X213150000Y-64790003D01*
X213600000Y-67740000D02*
X213150000Y-67289997D01*
X216900000Y-63290000D02*
X214900000Y-63290000D01*
X216900000Y-68790000D02*
X214900000Y-68790000D01*
X218200000Y-64340000D02*
X218650000Y-64790003D01*
X218200000Y-67740000D02*
X218650000Y-67289997D01*
X218650000Y-64790003D02*
X218650000Y-67289997D01*
%TO.C,C9*%
X207123422Y-82293999D02*
X207404580Y-82293999D01*
X207123422Y-83314001D02*
X207404580Y-83314001D01*
%TO.C,C14*%
X194307999Y-78853418D02*
X194307999Y-79134576D01*
X195328001Y-78853418D02*
X195328001Y-79134576D01*
%TO.C,C3*%
X197498579Y-85595995D02*
X197217421Y-85595995D01*
X197498579Y-86615997D02*
X197217421Y-86615997D01*
%TO.C,SW40*%
X187750000Y-67289997D02*
X187750000Y-64790003D01*
X188200000Y-64340000D02*
X187750000Y-64790003D01*
X188200000Y-67740000D02*
X187750000Y-67289997D01*
X189500000Y-63290000D02*
X191500000Y-63290000D01*
X189500000Y-68790000D02*
X191500000Y-68790000D01*
X192800000Y-64340000D02*
X193250000Y-64790003D01*
X192800000Y-67740000D02*
X193250000Y-67289997D01*
X193250000Y-67289997D02*
X193250000Y-64790003D01*
%TO.C,Y1*%
X201041999Y-97313998D02*
X201041999Y-101313998D01*
X204342001Y-97313998D02*
X201041999Y-97313998D01*
%TO.C,C12*%
X204975999Y-99454577D02*
X204975999Y-99173419D01*
X205996001Y-99454577D02*
X205996001Y-99173419D01*
%TO.C,D12*%
X197048001Y-120888005D02*
X197047999Y-118203007D01*
X195127993Y-118203001D02*
X195127999Y-120888005D01*
X197047999Y-118203007D02*
X195127993Y-118203001D01*
%TO.C,D20*%
X209351993Y-127854996D02*
X209352001Y-130540000D01*
X211272001Y-127855008D02*
X209351993Y-127854996D01*
X211272000Y-130540002D02*
X211272001Y-127855008D01*
%TO.C,D32*%
X209351993Y-113377002D02*
X209352001Y-116062000D01*
X211272001Y-113377008D02*
X209351993Y-113377002D01*
X211272003Y-116062004D02*
X211272001Y-113377008D01*
%TO.C,D11*%
X197047999Y-123029007D02*
X195127993Y-123029001D01*
X195127993Y-123029001D02*
X195127999Y-125714005D01*
X197048001Y-125714005D02*
X197047999Y-123029007D01*
%TO.C,D21*%
X203255993Y-123028996D02*
X203256001Y-125714000D01*
X205176001Y-123029008D02*
X203255993Y-123028996D01*
X205176000Y-125714002D02*
X205176001Y-123029008D01*
%TO.C,D22*%
X203255993Y-118202996D02*
X203256001Y-120888000D01*
X205176001Y-118203008D02*
X203255993Y-118202996D01*
X205176000Y-120888002D02*
X205176001Y-118203008D01*
%TO.C,D31*%
X209351993Y-118203002D02*
X209352001Y-120888000D01*
X211272001Y-118203008D02*
X209351993Y-118203002D01*
X211272003Y-120888004D02*
X211272001Y-118203008D01*
%TO.C,D24*%
X205287993Y-123029002D02*
X205288001Y-125714000D01*
X207208001Y-123029008D02*
X205287993Y-123029002D01*
X207208003Y-125714004D02*
X207208001Y-123029008D01*
%TO.C,D30*%
X209351993Y-123029002D02*
X209352001Y-125714000D01*
X211272001Y-123029008D02*
X209351993Y-123029002D01*
X211272003Y-125714004D02*
X211272001Y-123029008D01*
%TO.C,D2*%
X203143999Y-123029007D02*
X201223993Y-123029001D01*
X201223993Y-123029001D02*
X201223999Y-125714001D01*
X203144001Y-125714005D02*
X203143999Y-123029007D01*
%TO.C,D23*%
X203255993Y-113376996D02*
X203256001Y-116062000D01*
X205176001Y-113377008D02*
X203255993Y-113376996D01*
X205176000Y-116062002D02*
X205176001Y-113377008D01*
%TO.C,D27*%
X207319993Y-123029002D02*
X207320001Y-125714000D01*
X209240001Y-123029008D02*
X207319993Y-123029002D01*
X209240003Y-125714004D02*
X209240001Y-123029008D01*
%TO.C,D3*%
X203144001Y-120888005D02*
X203143999Y-118203007D01*
X201223993Y-118203001D02*
X201223999Y-120888001D01*
X203143999Y-118203007D02*
X201223993Y-118203001D01*
%TO.C,D6*%
X201112001Y-120888005D02*
X201111999Y-118203007D01*
X199191993Y-118203001D02*
X199191999Y-120888005D01*
X201111999Y-118203007D02*
X199191993Y-118203001D01*
%TO.C,D29*%
X207319993Y-113377002D02*
X207320001Y-116062000D01*
X209240001Y-113377008D02*
X207319993Y-113377002D01*
X209240003Y-116062004D02*
X209240001Y-113377008D01*
%TO.C,D14*%
X195015999Y-123029007D02*
X193095993Y-123029001D01*
X193095993Y-123029001D02*
X193095999Y-125714005D01*
X195016001Y-125714005D02*
X195015999Y-123029007D01*
%TO.C,D33*%
X211383993Y-123029002D02*
X211384001Y-125714000D01*
X213304001Y-123029008D02*
X211383993Y-123029002D01*
X213304003Y-125714004D02*
X213304001Y-123029008D01*
%TO.C,D34*%
X211383993Y-118203002D02*
X211384001Y-120888000D01*
X213304001Y-118203008D02*
X211383993Y-118203002D01*
X213304003Y-120888004D02*
X213304001Y-118203008D01*
%TO.C,D38*%
X203255993Y-127855002D02*
X203256001Y-130540000D01*
X205176001Y-127855008D02*
X203255993Y-127855002D01*
X205176003Y-130540004D02*
X205176001Y-127855008D01*
%TO.C,D8*%
X199079999Y-123029007D02*
X197159993Y-123029001D01*
X197159993Y-123029001D02*
X197159999Y-125714005D01*
X199080001Y-125714005D02*
X199079999Y-123029007D01*
%TO.C,D1*%
X197047999Y-127855007D02*
X195127993Y-127855001D01*
X195127993Y-127855001D02*
X195127999Y-130540001D01*
X197048001Y-130540005D02*
X197047999Y-127855007D01*
%TO.C,D15*%
X195016001Y-120888005D02*
X195015999Y-118203007D01*
X193095993Y-118203001D02*
X193095999Y-120888005D01*
X195015999Y-118203007D02*
X193095993Y-118203001D01*
%TO.C,D16*%
X195015999Y-113377007D02*
X193095993Y-113377001D01*
X193095993Y-113377001D02*
X193095999Y-116062005D01*
X195016001Y-116062005D02*
X195015999Y-113377007D01*
%TO.C,D25*%
X205287993Y-118203002D02*
X205288001Y-120888000D01*
X207208001Y-118203008D02*
X205287993Y-118203002D01*
X207208003Y-120888004D02*
X207208001Y-118203008D01*
%TO.C,D18*%
X201112001Y-130540005D02*
X201111999Y-127855007D01*
X199191993Y-127855001D02*
X199191998Y-130540004D01*
X201111999Y-127855007D02*
X199191993Y-127855001D01*
%TO.C,D26*%
X205287993Y-113377002D02*
X205288001Y-116062000D01*
X207208001Y-113377008D02*
X205287993Y-113377002D01*
X207208003Y-116062004D02*
X207208001Y-113377008D01*
%TO.C,D5*%
X201111999Y-123029007D02*
X199191993Y-123029001D01*
X199191993Y-123029001D02*
X199191999Y-125714005D01*
X201112001Y-125714005D02*
X201111999Y-123029007D01*
%TO.C,D17*%
X199079999Y-127855007D02*
X197159993Y-127855001D01*
X197159993Y-127855001D02*
X197159999Y-130540005D01*
X199080001Y-130540005D02*
X199079999Y-127855007D01*
%TO.C,D28*%
X207319996Y-118202999D02*
X207320004Y-120887998D01*
X209239999Y-118203003D02*
X207319996Y-118202999D01*
X209240000Y-120888003D02*
X209239999Y-118203003D01*
%TO.C,D36*%
X207319993Y-127855002D02*
X207320001Y-130540000D01*
X209240001Y-127855008D02*
X207319993Y-127855002D01*
X209240003Y-130540004D02*
X209240001Y-127855008D01*
%TO.C,D9*%
X199080001Y-120888005D02*
X199079999Y-118203007D01*
X197159993Y-118203001D02*
X197159999Y-120888005D01*
X199079999Y-118203007D02*
X197159993Y-118203001D01*
%TO.C,D19*%
X203144001Y-127855008D02*
X201223993Y-127855001D01*
X201223993Y-127855001D02*
X201224001Y-130540002D01*
X203144001Y-130540005D02*
X203144001Y-127855008D01*
%TO.C,D35*%
X211383993Y-113377002D02*
X211384001Y-116062000D01*
X213304001Y-113377008D02*
X211383993Y-113377002D01*
X213304003Y-116062004D02*
X213304001Y-113377008D01*
%TO.C,D37*%
X205287995Y-127855007D02*
X205288001Y-130540004D01*
X207208001Y-127855008D02*
X205287995Y-127855007D01*
X207208004Y-130540003D02*
X207208001Y-127855008D01*
%TD*%
M02*
