%TF.GenerationSoftware,KiCad,Pcbnew,9.0.0*%
%TF.CreationDate,2025-05-01T21:08:40+03:00*%
%TF.ProjectId,cyberia,63796265-7269-4612-9e6b-696361645f70,v1.0.0*%
%TF.SameCoordinates,Original*%
%TF.FileFunction,Paste,Top*%
%TF.FilePolarity,Positive*%
%FSLAX46Y46*%
G04 Gerber Fmt 4.6, Leading zero omitted, Abs format (unit mm)*
G04 Created by KiCad (PCBNEW 9.0.0) date 2025-05-01 21:08:40*
%MOMM*%
%LPD*%
G01*
G04 APERTURE LIST*
G04 Aperture macros list*
%AMRoundRect*
0 Rectangle with rounded corners*
0 $1 Rounding radius*
0 $2 $3 $4 $5 $6 $7 $8 $9 X,Y pos of 4 corners*
0 Add a 4 corners polygon primitive as box body*
4,1,4,$2,$3,$4,$5,$6,$7,$8,$9,$2,$3,0*
0 Add four circle primitives for the rounded corners*
1,1,$1+$1,$2,$3*
1,1,$1+$1,$4,$5*
1,1,$1+$1,$6,$7*
1,1,$1+$1,$8,$9*
0 Add four rect primitives between the rounded corners*
20,1,$1+$1,$2,$3,$4,$5,0*
20,1,$1+$1,$4,$5,$6,$7,0*
20,1,$1+$1,$6,$7,$8,$9,0*
20,1,$1+$1,$8,$9,$2,$3,0*%
G04 Aperture macros list end*
%ADD10RoundRect,0.243750X-0.456250X0.243750X-0.456250X-0.243750X0.456250X-0.243750X0.456250X0.243750X0*%
%ADD11RoundRect,0.225000X-0.225000X-0.250000X0.225000X-0.250000X0.225000X0.250000X-0.225000X0.250000X0*%
%ADD12RoundRect,0.200000X-0.275000X0.200000X-0.275000X-0.200000X0.275000X-0.200000X0.275000X0.200000X0*%
%ADD13RoundRect,0.225000X-0.250000X0.225000X-0.250000X-0.225000X0.250000X-0.225000X0.250000X0.225000X0*%
%ADD14RoundRect,0.225000X0.250000X-0.225000X0.250000X0.225000X-0.250000X0.225000X-0.250000X-0.225000X0*%
%ADD15RoundRect,0.250000X0.555000X-0.435000X0.555000X0.435000X-0.555000X0.435000X-0.555000X-0.435000X0*%
%ADD16RoundRect,0.125000X0.125000X-0.262500X0.125000X0.262500X-0.125000X0.262500X-0.125000X-0.262500X0*%
%ADD17RoundRect,0.218750X-0.256250X0.218750X-0.256250X-0.218750X0.256250X-0.218750X0.256250X0.218750X0*%
%ADD18RoundRect,0.225000X0.225000X0.250000X-0.225000X0.250000X-0.225000X-0.250000X0.225000X-0.250000X0*%
%ADD19RoundRect,0.150000X-0.150000X0.512500X-0.150000X-0.512500X0.150000X-0.512500X0.150000X0.512500X0*%
%ADD20RoundRect,0.150000X0.150000X-0.587500X0.150000X0.587500X-0.150000X0.587500X-0.150000X-0.587500X0*%
%ADD21RoundRect,0.150000X0.150000X0.425000X-0.150000X0.425000X-0.150000X-0.425000X0.150000X-0.425000X0*%
%ADD22RoundRect,0.075000X0.075000X0.500000X-0.075000X0.500000X-0.075000X-0.500000X0.075000X-0.500000X0*%
%ADD23O,1.000000X1.800000*%
%ADD24O,1.000000X2.100000*%
%ADD25RoundRect,0.249999X-0.395001X-0.395001X0.395001X-0.395001X0.395001X0.395001X-0.395001X0.395001X0*%
%ADD26RoundRect,0.050000X-0.387500X-0.050000X0.387500X-0.050000X0.387500X0.050000X-0.387500X0.050000X0*%
%ADD27RoundRect,0.050000X-0.050000X-0.387500X0.050000X-0.387500X0.050000X0.387500X-0.050000X0.387500X0*%
%ADD28R,1.000000X1.700000*%
%ADD29R,1.200000X1.400000*%
G04 APERTURE END LIST*
D10*
%TO.C,D4*%
X202184000Y-115999499D03*
X202184000Y-114124501D03*
%TD*%
%TO.C,D13*%
X196087997Y-115999501D03*
X196088003Y-114124499D03*
%TD*%
%TO.C,D10*%
X198119997Y-115999501D03*
X198120003Y-114124499D03*
%TD*%
%TO.C,D7*%
X200151997Y-115999501D03*
X200152003Y-114124499D03*
%TD*%
D11*
%TO.C,C1*%
X206488999Y-84327997D03*
X208038999Y-84327997D03*
%TD*%
D12*
%TO.C,FB1*%
X207009998Y-69024999D03*
X207009998Y-70674997D03*
%TD*%
%TO.C,R1*%
X205739999Y-79184997D03*
X205739999Y-80834995D03*
%TD*%
D13*
%TO.C,C7*%
X203962000Y-94728998D03*
X203962000Y-96278998D03*
%TD*%
D11*
%TO.C,C5*%
X208267000Y-86867998D03*
X209817000Y-86867998D03*
%TD*%
D14*
%TO.C,C10*%
X202692000Y-81546999D03*
X202692000Y-79996999D03*
%TD*%
D13*
%TO.C,C11*%
X205486000Y-94728998D03*
X205486000Y-96278998D03*
%TD*%
D15*
%TO.C,U4*%
X197390000Y-81621997D03*
X199390003Y-81621997D03*
X197390001Y-79921997D03*
X199390004Y-79921997D03*
D16*
X196485005Y-83434497D03*
X197755003Y-83434494D03*
X199025001Y-83434494D03*
X200295001Y-83434498D03*
X200294999Y-78109497D03*
X199025001Y-78109500D03*
X197755003Y-78109500D03*
X196485003Y-78109496D03*
%TD*%
D17*
%TO.C,F1*%
X204469999Y-69062500D03*
X204469999Y-70637500D03*
%TD*%
D11*
%TO.C,C4*%
X208775000Y-90424000D03*
X210325000Y-90424000D03*
%TD*%
D18*
%TO.C,C6*%
X198133000Y-89915998D03*
X196583000Y-89915998D03*
%TD*%
D19*
%TO.C,U3*%
X201610000Y-73157496D03*
X200660000Y-73157499D03*
X199710000Y-73157495D03*
X199710000Y-75432502D03*
X200660000Y-75432499D03*
X201610000Y-75432503D03*
%TD*%
D13*
%TO.C,C13*%
X200152001Y-98538998D03*
X200152001Y-100088998D03*
%TD*%
D20*
%TO.C,U2*%
X204789998Y-74851500D03*
X206689997Y-74851501D03*
X205740001Y-72976497D03*
%TD*%
D12*
%TO.C,R4*%
X201929998Y-69025000D03*
X201929998Y-70674998D03*
%TD*%
%TO.C,R2*%
X207264003Y-79184999D03*
X207264003Y-80834997D03*
%TD*%
%TO.C,R3*%
X199389998Y-69024999D03*
X199389998Y-70674997D03*
%TD*%
D21*
%TO.C,J1*%
X206399998Y-65909997D03*
X205599998Y-65909996D03*
D22*
X204449999Y-65909997D03*
X203449997Y-65909997D03*
X202949999Y-65909996D03*
X201949996Y-65909997D03*
D21*
X200799998Y-65909996D03*
X199999998Y-65909997D03*
X199999998Y-65909997D03*
X200799998Y-65909996D03*
D22*
X201449998Y-65909995D03*
X202449999Y-65909997D03*
X203949997Y-65909997D03*
X204949999Y-65909996D03*
D21*
X205599998Y-65909996D03*
X206399998Y-65909997D03*
D23*
X207520000Y-61154996D03*
D24*
X207519997Y-65334997D03*
X198879999Y-65334997D03*
D23*
X198879997Y-61154997D03*
%TD*%
D25*
%TO.C,U1*%
X202400000Y-90207999D03*
X202400001Y-88608000D03*
X203999999Y-90208000D03*
X204000000Y-88608001D03*
D26*
X199762501Y-86808000D03*
X199762500Y-87208001D03*
X199762500Y-87608000D03*
X199762500Y-88008000D03*
X199762498Y-88408000D03*
X199762500Y-88808000D03*
X199762500Y-89208000D03*
X199762500Y-89608000D03*
X199762500Y-90008000D03*
X199762501Y-90407999D03*
X199762500Y-90808000D03*
X199762500Y-91208000D03*
X199762499Y-91607999D03*
X199762501Y-92008000D03*
D27*
X200600000Y-92845499D03*
X201000001Y-92845500D03*
X201400000Y-92845500D03*
X201800000Y-92845500D03*
X202200000Y-92845502D03*
X202600000Y-92845500D03*
X203000000Y-92845500D03*
X203400000Y-92845500D03*
X203800000Y-92845500D03*
X204199999Y-92845499D03*
X204600000Y-92845500D03*
X205000000Y-92845500D03*
X205399999Y-92845501D03*
X205800000Y-92845499D03*
D26*
X206637499Y-92008000D03*
X206637500Y-91607999D03*
X206637500Y-91208000D03*
X206637500Y-90808000D03*
X206637502Y-90408000D03*
X206637500Y-90008000D03*
X206637500Y-89608000D03*
X206637500Y-89208000D03*
X206637500Y-88808000D03*
X206637499Y-88408001D03*
X206637500Y-88008000D03*
X206637500Y-87608000D03*
X206637501Y-87208001D03*
X206637499Y-86808000D03*
D27*
X205800000Y-85970501D03*
X205399999Y-85970500D03*
X205000000Y-85970500D03*
X204600000Y-85970500D03*
X204200000Y-85970498D03*
X203800000Y-85970500D03*
X203400000Y-85970500D03*
X203000000Y-85970500D03*
X202600000Y-85970500D03*
X202200001Y-85970501D03*
X201800000Y-85970500D03*
X201400000Y-85970500D03*
X201000001Y-85970499D03*
X200600000Y-85970501D03*
%TD*%
D14*
%TO.C,C2*%
X204216001Y-81546997D03*
X204216001Y-79996997D03*
%TD*%
D28*
%TO.C,SW39*%
X217800002Y-62890000D03*
X217800003Y-69190000D03*
X213999997Y-62890000D03*
X213999998Y-69190000D03*
%TD*%
D11*
%TO.C,C9*%
X206489001Y-82804000D03*
X208039001Y-82804000D03*
%TD*%
D13*
%TO.C,C14*%
X194818000Y-78218997D03*
X194818000Y-79768997D03*
%TD*%
D18*
%TO.C,C3*%
X198133000Y-86105996D03*
X196583000Y-86105996D03*
%TD*%
D28*
%TO.C,SW40*%
X188599999Y-69190000D03*
X188599997Y-62890000D03*
X192400003Y-69190000D03*
X192400001Y-62890000D03*
%TD*%
D29*
%TO.C,Y1*%
X201842000Y-98213998D03*
X201842000Y-100413998D03*
X203542000Y-100413998D03*
X203542000Y-98213998D03*
%TD*%
D14*
%TO.C,C12*%
X205486000Y-100088998D03*
X205486000Y-98538998D03*
%TD*%
D10*
%TO.C,D12*%
X196087997Y-120825501D03*
X196088003Y-118950499D03*
%TD*%
%TO.C,D20*%
X210312000Y-128602501D03*
X210312000Y-130477499D03*
%TD*%
%TO.C,D32*%
X210312007Y-114124501D03*
X210311993Y-115999499D03*
%TD*%
%TO.C,D11*%
X196088003Y-123776499D03*
X196087997Y-125651501D03*
%TD*%
%TO.C,D21*%
X204216000Y-123776501D03*
X204216000Y-125651499D03*
%TD*%
%TO.C,D22*%
X204216000Y-118950501D03*
X204216000Y-120825499D03*
%TD*%
%TO.C,D31*%
X210312007Y-118950501D03*
X210311993Y-120825499D03*
%TD*%
%TO.C,D24*%
X206248007Y-123776501D03*
X206247993Y-125651499D03*
%TD*%
%TO.C,D30*%
X210312007Y-123776501D03*
X210311993Y-125651499D03*
%TD*%
%TO.C,D2*%
X202184000Y-123776501D03*
X202184000Y-125651499D03*
%TD*%
%TO.C,D23*%
X204216000Y-114124501D03*
X204216000Y-115999499D03*
%TD*%
%TO.C,D27*%
X208280007Y-123776501D03*
X208279993Y-125651499D03*
%TD*%
%TO.C,D3*%
X202184000Y-120825499D03*
X202184000Y-118950501D03*
%TD*%
%TO.C,D6*%
X200151997Y-120825501D03*
X200152003Y-118950499D03*
%TD*%
%TO.C,D29*%
X208280007Y-114124501D03*
X208279993Y-115999499D03*
%TD*%
%TO.C,D14*%
X194056003Y-123776499D03*
X194055997Y-125651501D03*
%TD*%
%TO.C,D33*%
X212344007Y-123776501D03*
X212343993Y-125651499D03*
%TD*%
%TO.C,D34*%
X212344007Y-118950501D03*
X212343993Y-120825499D03*
%TD*%
%TO.C,D38*%
X204216001Y-128602506D03*
X204215999Y-130477494D03*
%TD*%
%TO.C,D8*%
X198120003Y-123776499D03*
X198119997Y-125651501D03*
%TD*%
%TO.C,D1*%
X196088000Y-128602501D03*
X196088000Y-130477499D03*
%TD*%
%TO.C,D15*%
X194055997Y-120825501D03*
X194056003Y-118950499D03*
%TD*%
%TO.C,D16*%
X194056003Y-114124499D03*
X194055997Y-115999501D03*
%TD*%
%TO.C,D25*%
X206248007Y-118950501D03*
X206247993Y-120825499D03*
%TD*%
%TO.C,D18*%
X200151997Y-130477501D03*
X200152003Y-128602499D03*
%TD*%
%TO.C,D26*%
X206248007Y-114124501D03*
X206247993Y-115999499D03*
%TD*%
%TO.C,D5*%
X200152003Y-123776499D03*
X200151997Y-125651501D03*
%TD*%
%TO.C,D17*%
X198120003Y-128602499D03*
X198119997Y-130477501D03*
%TD*%
%TO.C,D28*%
X208279998Y-118950499D03*
X208280002Y-120825501D03*
%TD*%
%TO.C,D36*%
X208280007Y-128602501D03*
X208279993Y-130477499D03*
%TD*%
%TO.C,D9*%
X198119997Y-120825501D03*
X198120003Y-118950499D03*
%TD*%
%TO.C,D19*%
X202184006Y-128602500D03*
X202183994Y-130477500D03*
%TD*%
%TO.C,D35*%
X212344007Y-114124501D03*
X212343993Y-115999499D03*
%TD*%
%TO.C,D37*%
X206248001Y-128602506D03*
X206247999Y-130477494D03*
%TD*%
M02*
