M48
; DRILL file {KiCad 9.0.0} date 2025-05-01T21:08:38+0300
; FORMAT={-:-/ absolute / metric / decimal}
; #@! TF.CreationDate,2025-05-01T21:08:38+03:00
; #@! TF.GenerationSoftware,Kicad,Pcbnew,9.0.0
; #@! TF.FileFunction,NonPlated,1,4,NPTH
FMAT,2
METRIC
; #@! TA.AperFunction,NonPlated,NPTH,ComponentDrill
T1C0.650
; #@! TA.AperFunction,NonPlated,NPTH,ComponentDrill
T2C1.702
; #@! TA.AperFunction,NonPlated,NPTH,ComponentDrill
T3C3.000
; #@! TA.AperFunction,NonPlated,NPTH,ComponentDrill
T4C3.200
; #@! TA.AperFunction,NonPlated,NPTH,ComponentDrill
T5C3.429
%
G90
G05
T1
X200.31Y-64.835
X206.09Y-64.835
T2
X91.435Y-124.306
X95.835Y-107.885
X100.235Y-91.464
X102.06Y-127.153
X104.635Y-75.044
X106.46Y-110.732
X110.86Y-94.311
X115.26Y-77.891
X119.152Y-102.438
X124.967Y-86.463
X129.489Y-106.2
X130.781Y-70.488
X135.303Y-90.225
X140.19Y-143.031
X141.118Y-74.25
X142.172Y-100.923
X149.356Y-85.516
X150.16Y-147.68
X152.141Y-105.572
X154.259Y-117.593
X156.541Y-70.109
X157.558Y-151.951
X159.325Y-90.165
X161.443Y-102.186
X164.228Y-122.242
X166.346Y-134.263
X166.51Y-74.757
X166.568Y-158.26
X168.628Y-86.779
X171.413Y-106.835
X173.112Y-163.751
X173.531Y-118.856
X176.316Y-138.912
X178.597Y-91.428
X180.715Y-103.449
X180.89Y-171.529
X183.5Y-123.505
X190.685Y-108.098
X215.715Y-108.098
X222.9Y-123.505
X225.51Y-171.529
X225.685Y-103.449
X227.803Y-91.428
X230.084Y-138.912
X232.869Y-118.856
X233.288Y-163.751
X234.987Y-106.835
X237.772Y-86.779
X239.832Y-158.26
X239.89Y-74.757
X240.054Y-134.263
X242.172Y-122.242
X244.957Y-102.186
X247.075Y-90.165
X248.842Y-151.951
X249.859Y-70.109
X252.141Y-117.593
X254.259Y-105.572
X256.24Y-147.68
X257.044Y-85.516
X264.228Y-100.923
X265.282Y-74.25
X266.21Y-143.031
X271.097Y-90.225
X275.619Y-70.488
X276.911Y-106.2
X281.433Y-86.463
X287.248Y-102.438
X291.14Y-77.891
X295.54Y-94.311
X299.94Y-110.732
X301.765Y-75.044
X304.34Y-127.153
X306.165Y-91.464
X310.565Y-107.885
X314.965Y-124.306
T3
X98.288Y-119.982
X102.548Y-123.401
X102.688Y-103.561
X106.948Y-106.98
X107.088Y-87.14
X111.348Y-90.56
X111.488Y-70.72
X115.748Y-74.139
X126.356Y-98.728
X130.302Y-102.505
X132.17Y-82.753
X136.116Y-86.53
X137.984Y-66.778
X141.93Y-70.556
X147.69Y-139.963
X149.671Y-97.855
X151.291Y-144.07
X153.273Y-101.962
X156.855Y-82.448
X160.457Y-86.555
X161.758Y-114.525
X164.04Y-67.04
X165.36Y-118.632
X165.476Y-150.231
X167.642Y-71.147
X168.31Y-154.902
X168.943Y-99.118
X172.544Y-103.225
X173.846Y-131.195
X176.127Y-83.711
X177.447Y-135.302
X179.729Y-87.818
X181.03Y-115.788
X181.208Y-163.433
X183.188Y-168.524
X184.632Y-119.895
X188.215Y-100.381
X191.816Y-104.488
X218.185Y-100.381
X223.647Y-100.262
X225.192Y-163.433
X225.37Y-115.788
X230.273Y-83.711
X230.283Y-161.453
X230.831Y-115.669
X232.554Y-131.195
X235.734Y-83.591
X237.457Y-99.118
X238.016Y-131.076
X240.924Y-150.231
X242.36Y-67.04
X242.919Y-98.999
X244.642Y-114.525
X246.282Y-149.166
X247.821Y-66.921
X249.545Y-82.448
X250.103Y-114.406
X255.006Y-82.328
X256.729Y-97.855
X258.71Y-139.963
X262.19Y-97.736
X264.172Y-139.844
X268.416Y-66.778
X273.867Y-67.135
X274.23Y-82.753
X279.681Y-83.11
X280.044Y-98.728
X285.495Y-99.085
X294.912Y-70.72
X299.312Y-87.14
X300.311Y-71.551
X303.712Y-103.561
X304.711Y-87.971
X308.112Y-119.982
X309.111Y-104.392
X313.511Y-120.813
T4
X93.98Y-68.58
X93.98Y-172.72
X152.4Y-172.72
X180.34Y-68.58
X226.06Y-68.58
X254.0Y-172.72
X312.42Y-172.72
X312.42Y-68.58
T5
X96.748Y-125.729
X101.148Y-109.308
X105.548Y-92.888
X109.948Y-76.467
X124.321Y-104.319
X130.135Y-88.344
X135.949Y-72.369
X145.175Y-145.355
X147.156Y-103.247
X154.341Y-87.84
X159.244Y-119.918
X161.525Y-72.433
X162.063Y-155.105
X166.428Y-104.51
X171.331Y-136.588
X173.613Y-89.103
X177.001Y-167.64
X178.515Y-121.181
X185.7Y-105.773
X220.7Y-105.773
X227.885Y-121.181
X229.399Y-167.64
X232.787Y-89.103
X235.069Y-136.588
X239.972Y-104.51
X244.337Y-155.105
X244.875Y-72.433
X247.156Y-119.918
X252.059Y-87.84
X259.244Y-103.247
X261.225Y-145.355
X270.451Y-72.369
X276.265Y-88.344
X282.079Y-104.319
X296.452Y-76.467
X300.852Y-92.888
X305.252Y-109.308
X309.652Y-125.729
M30
