M48
; DRILL file {KiCad 9.0.0} date 2025-05-01T21:08:38+0300
; FORMAT={-:-/ absolute / metric / decimal}
; #@! TF.CreationDate,2025-05-01T21:08:38+03:00
; #@! TF.GenerationSoftware,Kicad,Pcbnew,9.0.0
; #@! TF.FileFunction,Plated,1,4,PTH
FMAT,2
METRIC
; #@! TA.AperFunction,Plated,PTH,ViaDrill
T1C0.300
; #@! TA.AperFunction,Plated,PTH,ComponentDrill
T2C0.600
%
G90
G05
T1
X105.711Y-124.249
X108.324Y-69.872
X110.111Y-107.828
X114.511Y-91.407
X118.911Y-74.987
X133.379Y-103.625
X134.907Y-65.658
X139.194Y-87.651
X145.008Y-71.676
X154.26Y-145.454
X156.241Y-103.346
X161.072Y-65.656
X163.425Y-87.939
X168.328Y-120.016
X170.61Y-72.531
X170.992Y-156.78
X173.159Y-82.327
X175.513Y-104.609
X180.415Y-136.686
X182.697Y-89.202
X185.302Y-98.942
X185.504Y-170.84
X187.6Y-121.279
X188.6Y-62.89
X188.6Y-69.19
X194.785Y-105.872
X194.818Y-78.219
X194.818Y-79.769
X196.088Y-112.268
X196.088Y-118.95
X196.583Y-86.106
X196.583Y-89.916
X198.12Y-112.268
X198.12Y-123.776
X198.133Y-86.106
X198.133Y-89.916
X198.39Y-80.772
X199.39Y-70.675
X200.152Y-112.268
X200.152Y-128.602
X200.152Y-100.089
X200.295Y-83.434
X200.66Y-73.157
X201.842Y-100.414
X201.93Y-70.675
X202.692Y-79.997
X203.2Y-89.408
X203.542Y-98.214
X203.962Y-94.729
X203.962Y-96.279
X204.216Y-79.997
X204.216Y-81.547
X204.79Y-74.852
X205.486Y-96.279
X205.486Y-98.539
X206.489Y-84.328
X206.69Y-74.852
X207.772Y-93.726
X208.039Y-84.328
X208.039Y-82.804
X208.267Y-86.868
X208.775Y-90.424
X209.817Y-86.868
X210.325Y-90.424
X214.0Y-69.19
X215.217Y-101.765
X217.8Y-62.89
X217.8Y-69.19
X226.615Y-98.878
X227.305Y-85.095
X232.599Y-159.137
X233.799Y-114.285
X238.702Y-82.207
X239.392Y-68.424
X240.984Y-129.692
X245.887Y-97.615
X248.965Y-147.287
X250.79Y-65.537
X253.071Y-113.022
X257.974Y-80.944
X265.159Y-96.352
X265.338Y-67.898
X267.14Y-138.459
X276.944Y-66.015
X282.758Y-81.99
X288.573Y-97.965
X291.749Y-71.567
X303.475Y-70.703
X307.875Y-87.124
X312.275Y-103.545
X316.675Y-119.965
T2
G00X198.88Y-61.555
M15
G01X198.88Y-60.755
M16
G05
G00X198.88Y-65.885
M15
G01X198.88Y-64.785
M16
G05
G00X207.52Y-65.885
M15
G01X207.52Y-64.785
M16
G05
G00X207.52Y-61.555
M15
G01X207.52Y-60.755
M16
G05
M30
